<svg xmlns="http://www.w3.org/2000/svg" width="1600" height="900" viewBox="0 0 1600 900">
<defs>
  <linearGradient id="bg" x1="0" y1="0" x2="1" y2="1">
    <stop offset="0%" stop-color="#020617"/>
    <stop offset="55%" stop-color="#071225"/>
    <stop offset="100%" stop-color="#0b1024"/>
  </linearGradient>
  <linearGradient id="cyan" x1="0" y1="0" x2="1" y2="0">
    <stop offset="0%" stop-color="#22d3ee"/>
    <stop offset="100%" stop-color="#38bdf8"/>
  </linearGradient>
  <linearGradient id="violet" x1="0" y1="0" x2="1" y2="1">
    <stop offset="0%" stop-color="#8b5cf6"/>
    <stop offset="100%" stop-color="#c084fc"/>
  </linearGradient>
  <filter id="glow"><feGaussianBlur stdDeviation="10" result="b"/><feMerge><feMergeNode in="b"/><feMergeNode in="SourceGraphic"/></feMerge></filter>
  <marker id="arrow" markerWidth="10" markerHeight="10" refX="8" refY="5" orient="auto"><path d="M0,0 L10,5 L0,10 z" fill="#22d3ee"/></marker>
</defs>
<rect width="1600" height="900" fill="url(#bg)"/>
<circle cx="1450" cy="80" r="230" fill="#22d3ee" opacity=".035"/>
<circle cx="120" cy="820" r="260" fill="#8b5cf6" opacity=".035"/>
<text x="80" y="82" fill="#67e8f9" font-family="Inter,Arial,sans-serif" font-size="20" font-weight="700" letter-spacing="4">TRANSFORMER FAMILY</text>
<text x="80" y="135" fill="#f8fafc" font-family="Inter,Arial,sans-serif" font-size="42" font-weight="800">Encoder, Decoder &amp; Encoder–Decoder Architectures</text>

<rect x="120" y="280" width="360" height="160" rx="24" fill="#071827" stroke="#22d3ee" stroke-opacity=".45" stroke-width="2"/>
<rect x="120" y="280" width="7" height="160" rx="4" fill="#22d3ee" opacity=".85"/>
<text x="148" y="328" fill="#f8fafc" font-family="Inter,Arial,sans-serif" font-size="23" font-weight="750">Encoder</text>
<text x="148" y="362" fill="#94a3b8" font-family="Inter,Arial,sans-serif" font-size="16">Reads / represents input</text>
<rect x="120" y="510" width="360" height="160" rx="24" fill="#100c25" stroke="#8b5cf6" stroke-opacity=".45" stroke-width="2"/>
<rect x="120" y="510" width="7" height="160" rx="4" fill="#8b5cf6" opacity=".85"/>
<text x="148" y="558" fill="#f8fafc" font-family="Inter,Arial,sans-serif" font-size="23" font-weight="750">Decoder</text>
<text x="148" y="592" fill="#94a3b8" font-family="Inter,Arial,sans-serif" font-size="16">Generates autoregressively</text>
<rect x="650" y="395" width="360" height="160" rx="24" fill="#071f1b" stroke="#34d399" stroke-opacity=".45" stroke-width="2"/>
<rect x="650" y="395" width="7" height="160" rx="4" fill="#34d399" opacity=".85"/>
<text x="678" y="443" fill="#f8fafc" font-family="Inter,Arial,sans-serif" font-size="23" font-weight="750">Encoder–decoder</text>
<text x="678" y="477" fill="#94a3b8" font-family="Inter,Arial,sans-serif" font-size="16">Input representation + generation</text>
<rect x="1150" y="395" width="360" height="160" rx="24" fill="#21170a" stroke="#f59e0b" stroke-opacity=".45" stroke-width="2"/>
<rect x="1150" y="395" width="7" height="160" rx="4" fill="#f59e0b" opacity=".85"/>
<text x="1178" y="443" fill="#f8fafc" font-family="Inter,Arial,sans-serif" font-size="23" font-weight="750">Use cases</text>
<text x="1178" y="477" fill="#94a3b8" font-family="Inter,Arial,sans-serif" font-size="16">Understanding • generation • translation • seq2seq</text>
<text x="80" y="850" fill="#64748b" font-family="Inter,Arial,sans-serif" font-size="16">Architectural families differ in how input context is encoded and how output tokens are generated.</text>
</svg>