<svg xmlns="http://www.w3.org/2000/svg" width="1600" height="900" viewBox="0 0 1600 900">
<defs>
  <linearGradient id="bg" x1="0" y1="0" x2="1" y2="1">
    <stop offset="0%" stop-color="#020617"/>
    <stop offset="55%" stop-color="#071225"/>
    <stop offset="100%" stop-color="#0b1024"/>
  </linearGradient>
  <linearGradient id="cyan" x1="0" y1="0" x2="1" y2="0">
    <stop offset="0%" stop-color="#22d3ee"/>
    <stop offset="100%" stop-color="#38bdf8"/>
  </linearGradient>
  <linearGradient id="violet" x1="0" y1="0" x2="1" y2="1">
    <stop offset="0%" stop-color="#8b5cf6"/>
    <stop offset="100%" stop-color="#c084fc"/>
  </linearGradient>
  <filter id="glow"><feGaussianBlur stdDeviation="10" result="b"/><feMerge><feMergeNode in="b"/><feMergeNode in="SourceGraphic"/></feMerge></filter>
  <marker id="arrow" markerWidth="10" markerHeight="10" refX="8" refY="5" orient="auto"><path d="M0,0 L10,5 L0,10 z" fill="#22d3ee"/></marker>
</defs>
<rect width="1600" height="900" fill="url(#bg)"/>
<circle cx="1450" cy="80" r="230" fill="#22d3ee" opacity=".035"/>
<circle cx="120" cy="820" r="260" fill="#8b5cf6" opacity=".035"/>
<text x="80" y="82" fill="#67e8f9" font-family="Inter,Arial,sans-serif" font-size="20" font-weight="700" letter-spacing="4">FROM INPUT TO OUTPUT</text>
<text x="80" y="135" fill="#f8fafc" font-family="Inter,Arial,sans-serif" font-size="42" font-weight="800">Generative AI Generation Pipeline</text>

<path d="M195,510 L465,360" stroke="#22d3ee" stroke-width="4" fill="none" marker-end="url(#arrow)" opacity=".9"/>
<path d="M465,510 L735,360" stroke="#22d3ee" stroke-width="4" fill="none" marker-end="url(#arrow)" opacity=".9"/>
<path d="M735,510 L1005,360" stroke="#22d3ee" stroke-width="4" fill="none" marker-end="url(#arrow)" opacity=".9"/>
<path d="M1005,510 L1275,360" stroke="#22d3ee" stroke-width="4" fill="none" marker-end="url(#arrow)" opacity=".9"/>
<path d="M1275,510 L1490,360" stroke="#22d3ee" stroke-width="4" fill="none" marker-end="url(#arrow)" opacity=".9"/>
<rect x="80" y="360" width="230" height="150" rx="24" fill="#071827" stroke="#22d3ee" stroke-opacity=".45" stroke-width="2"/>
<rect x="80" y="360" width="7" height="150" rx="4" fill="#22d3ee" opacity=".85"/>
<text x="108" y="408" fill="#f8fafc" font-family="Inter,Arial,sans-serif" font-size="23" font-weight="750">Human-readable input</text>
<text x="108" y="442" fill="#94a3b8" font-family="Inter,Arial,sans-serif" font-size="16">Prompt / context</text>
<rect x="350" y="360" width="230" height="150" rx="24" fill="#071827" stroke="#22d3ee" stroke-opacity=".45" stroke-width="2"/>
<rect x="350" y="360" width="7" height="150" rx="4" fill="#22d3ee" opacity=".85"/>
<text x="378" y="408" fill="#f8fafc" font-family="Inter,Arial,sans-serif" font-size="23" font-weight="750">Tokenization</text>
<text x="378" y="442" fill="#94a3b8" font-family="Inter,Arial,sans-serif" font-size="16">Text → token IDs</text>
<rect x="620" y="360" width="230" height="150" rx="24" fill="#100c25" stroke="#8b5cf6" stroke-opacity=".45" stroke-width="2"/>
<rect x="620" y="360" width="7" height="150" rx="4" fill="#8b5cf6" opacity=".85"/>
<text x="648" y="408" fill="#f8fafc" font-family="Inter,Arial,sans-serif" font-size="23" font-weight="750">Representation</text>
<text x="648" y="442" fill="#94a3b8" font-family="Inter,Arial,sans-serif" font-size="16">Embeddings + positions</text>
<rect x="890" y="360" width="230" height="150" rx="24" fill="#100c25" stroke="#8b5cf6" stroke-opacity=".45" stroke-width="2"/>
<rect x="890" y="360" width="7" height="150" rx="4" fill="#8b5cf6" opacity=".85"/>
<text x="918" y="408" fill="#f8fafc" font-family="Inter,Arial,sans-serif" font-size="23" font-weight="750">Model computation</text>
<text x="918" y="442" fill="#94a3b8" font-family="Inter,Arial,sans-serif" font-size="16">Context → logits</text>
<rect x="1160" y="360" width="230" height="150" rx="24" fill="#071f1b" stroke="#34d399" stroke-opacity=".45" stroke-width="2"/>
<rect x="1160" y="360" width="7" height="150" rx="4" fill="#34d399" opacity=".85"/>
<text x="1188" y="408" fill="#f8fafc" font-family="Inter,Arial,sans-serif" font-size="23" font-weight="750">Decoding</text>
<text x="1188" y="442" fill="#94a3b8" font-family="Inter,Arial,sans-serif" font-size="16">Select next token</text>
<rect x="1430" y="360" width="120" height="150" rx="24" fill="#071f1b" stroke="#34d399" stroke-opacity=".45" stroke-width="2"/>
<rect x="1430" y="360" width="7" height="150" rx="4" fill="#34d399" opacity=".85"/>
<text x="1458" y="408" fill="#f8fafc" font-family="Inter,Arial,sans-serif" font-size="23" font-weight="750">Generated output</text>
<text x="1458" y="442" fill="#94a3b8" font-family="Inter,Arial,sans-serif" font-size="16">Tokens → text / media</text>
<text x="80" y="850" fill="#64748b" font-family="Inter,Arial,sans-serif" font-size="16">A simplified conceptual pipeline; exact components vary by model and application.</text>
</svg>